<svg id="visual" viewBox="0 0 900 600" width="900" height="600" xmlns="http://www.w3.org/2000/svg" xmlns:xlink="http://www.w3.org/1999/xlink" version="1.1"><rect x="0" y="0" width="900" height="600" fill="#000000"></rect><defs><linearGradient id="grad1_0" x1="33.3%" y1="100%" x2="100%" y2="0%"><stop offset="20%" stop-color="#000000" stop-opacity="1"></stop><stop offset="80%" stop-color="#000000" stop-opacity="1"></stop></linearGradient></defs><defs><linearGradient id="grad2_0" x1="0%" y1="100%" x2="66.7%" y2="0%"><stop offset="20%" stop-color="#000000" stop-opacity="1"></stop><stop offset="80%" stop-color="#000000" stop-opacity="1"></stop></linearGradient></defs><g transform="translate(900, 600)"><path d="M-243.4 0C-246.8 -24 -250.1 -48 -235.1 -63C-220 -78 -186.5 -84.1 -174.1 -100.5C-161.6 -116.9 -170.2 -143.5 -163.3 -163.3C-156.5 -183.1 -134.4 -196 -112 -194C-89.6 -191.9 -67.1 -174.9 -48.4 -180.6C-29.7 -186.4 -14.9 -214.9 0 -243.4L0 0Z" fill="#58C4DC"></path></g><g transform="translate(0, 0)"><path d="M243.4 0C226.5 16.4 209.7 32.9 208.6 55.9C207.6 78.9 222.3 108.5 210.8 121.7C199.2 134.9 161.4 131.6 141.4 141.4C121.5 151.2 119.4 174.2 108 187.1C96.6 200 76 202.9 56.4 210.6C36.9 218.3 18.4 230.8 0 243.4L0 0Z" fill="#58C4DC"></path></g></svg>